<svg version="1.1" id="Layer_1" xmlns="http://www.w3.org/2000/svg" x="0" y="0" viewBox="0 0 359 79" xml:space="preserve"><style>.st1{fill:#fff}.st4{fill:none;stroke:#fff;stroke-miterlimit:10}</style><linearGradient id="SVGID_1_" gradientUnits="userSpaceOnUse" x1="-98.6" y1="-13811.5" x2="-98.6" y2="-13811.5" gradientTransform="matrix(1 0 0 -1 0 -13759.89)"><stop offset="0" stop-color="#3cb6d2"/><stop offset=".53" stop-color="#f20e72"/><stop offset="1" stop-color="#3cb6d2"/><stop offset="1" stop-color="#fe330a"/></linearGradient><path class="st1" d="M3.4 5.5h15.9v40.6h5.4l19.3-21h9.2L31.5 48.3l17.8 19.2h6.4v6.6H45.6L24.6 52h-5.4v22.1h-7.5v-62H3.4V5.5zM65.4 49.6c0-7.9 2.1-14.2 6.2-18.8 4.1-4.6 10-6.9 17.6-6.9 4.1 0 7.7.7 10.6 2 3 1.3 5.4 3.2 7.4 5.4 2 2.3 3.4 5 4.4 8.1.9 3.1 1.4 6.5 1.4 10.1 0 3.9-.5 7.5-1.6 10.6-1 3.2-2.6 5.9-4.6 8.1s-4.5 3.9-7.5 5.1-6.4 1.8-10.1 1.8c-4.1 0-7.6-.7-10.6-2s-5.5-3.2-7.4-5.4-3.4-5-4.4-8.1c-.9-3-1.4-6.4-1.4-10zm8.1 0c0 2.3.3 4.6.8 6.9.6 2.3 1.5 4.3 2.7 6.2s2.8 3.3 4.8 4.4 4.4 1.7 7.3 1.7c5.2 0 9.1-1.6 11.8-4.9 2.6-3.2 4-8 4-14.3 0-2.4-.3-4.7-.8-6.9-.6-2.3-1.5-4.3-2.7-6.1-1.3-1.8-2.9-3.3-4.9-4.4s-4.4-1.7-7.3-1.7c-5.2 0-9.1 1.6-11.7 4.8-2.7 3.2-4 8-4 14.3zM152.7 5.5h16v51.8c0 .6 0 1.3.1 2.2.1.9.1 1.8.2 2.8l.3 2.9c.1.9.3 1.8.4 2.5h6.6v6.4h-13.1l-1-7.5h-.4c-1.4 2.5-3.6 4.6-6.4 6.2-2.8 1.7-6.1 2.5-9.8 2.5-7.4 0-12.8-2.1-16.3-6.2s-5.2-10.6-5.2-19.4c0-4.1.6-7.8 1.8-10.9 1.2-3.2 2.8-5.8 5-7.9s4.8-3.7 7.9-4.9c3.1-1.1 6.5-1.7 10.3-1.7 1.4 0 2.6 0 3.7.1l3 .3c.9.1 1.8.3 2.6.5s1.7.5 2.7.7V12.1h-8.2V5.5h-.2zm-5.8 63.2c4 0 7.1-1 9.4-3.1s3.8-5.1 4.7-9.3V33.6c-1.4-1-3-1.7-4.8-2.2s-4.2-.7-7.1-.7c-5.2 0-9.3 1.5-12.3 4.6-3 3-4.5 7.8-4.5 14.4 0 2.7.2 5.2.7 7.5s1.3 4.3 2.4 6 2.7 3 4.5 4c1.9 1 4.2 1.5 7 1.5zM229.2 67.9c-1.2 1-2.6 2-4.2 2.9s-3.3 1.7-5.2 2.4c-1.9.7-3.9 1.2-5.9 1.5-2.1.4-4.1.5-6.2.5-3.9 0-7.4-.6-10.4-1.8-3-1.2-5.5-2.9-7.5-5.2-2-2.3-3.6-4.9-4.6-8.1-1-3.1-1.6-6.7-1.6-10.6 0-4.1.6-7.8 1.7-11s2.8-5.9 4.9-8c2.2-2.2 4.8-3.8 7.8-4.9 3.1-1.1 6.5-1.7 10.3-1.7 2.7 0 5.5.4 8.1 1.1 2.7.7 5 2.1 7.1 4.1s3.6 4.7 4.8 8.2c1.1 3.5 1.5 8 1.2 13.6h-37.8c0 5.9 1.6 10.3 4.7 13.2 3.2 2.9 7.4 4.4 12.7 4.4 1.8 0 3.5-.2 5.2-.6s3.4-.9 4.9-1.5a23.34 23.34 0 007-4l3 5.5zm-20.6-37.5c-2.1 0-4.2.2-6.1.7s-3.6 1.2-5.1 2.3c-1.5 1.1-2.7 2.5-3.6 4.2s-1.5 3.9-1.8 6.4h30.4c-.3-4.3-1.7-7.7-4.2-10-2.4-2.4-5.6-3.6-9.6-3.6zM285.3 22.9c0 6-2.9 12.7-8.6 20.1S263 58.4 252.8 67.1h34.6v7.1h-43.6v-7.1c1.2-1.2 2.9-2.7 5.1-4.6s4.5-4 7-6.3 5-4.8 7.6-7.5 4.9-5.4 7-8.2c2.1-2.8 3.8-5.6 5.1-8.4 1.3-2.8 2-5.5 2-8.1 0-3.9-1-7-3.1-9.3s-5.1-3.4-9.3-3.4c-3.5 0-6.5.4-8.9 1.2s-4.6 1.9-6.6 3.4l-3.3-5.4c2.9-2.1 6.1-3.6 9.4-4.6 3.3-1 6.9-1.5 10.9-1.5 6.2 0 10.8 1.7 14 5 3 3.3 4.6 7.8 4.6 13.5zM354.3 52.8h-13.2v21.3h-7.7V52.8h-31.7v-5.7l32.8-41.6h6.6v40.8h13.2v6.5zm-21-35l-22.6 28.5h22.6V17.8z"/><g><path class="st4" d="M-110 44.9V24.4l19 10.2V14.5l-38.8-20.9v40.7z"/><path class="st4" d="M-71.7 25v20.1l18.4 9.9-18.4 10-2.1 1.1-8.4 4.5-8.4 4.5-19.9 10.8V64.1l-19.9-10.7v63.3L-15.8 55z"/></g><g><path class="st1" d="M-72.4-36.2V64.5l-1.6.8-8.5 4.6-7.9 4.2-8.4-4.5-85-45.8 53.3-28.7v17.6L-149 22.9l-1.6.9 1.6.9 57.3 30.8 1.5.8V-8.6l-1.5.8-20 10.4-16.2-8.7 55.5-30.1m1-1.7l-114.5 61.7 86.8 46.7 8.8 4.8 8.4-4.5 8.5-4.6 2.1-1.1v-103h-.1zm-40.3 41.5L-91.2-7v61.7l-57.3-30.9 19-10.5V-6l17.8 9.6z"/></g></svg>