<svg width="799.9" height="264.8" xmlns="http://www.w3.org/2000/svg"><g fill="#fff"><path d="M132 0C97 0 65 14 42 36h56c29 0 52 4 68 14 17 10 29 29 29 54 0 32-20 49-36 55-28 11-59 9-74 9v51c0 40 34 45 47 46a135 135 0 002 0l3-1h-1 1a132 132 0 00-5-264zm5 264zm-3 1h-2c-28 0-54-9-76-24s31 25 78 24zm-78-24V101c0-25-12-45-29-48a132 132 0 0029 188zM27 53c4-6 9-12 15-17h-1c-9 8-15 17-15 17h1zm68-14h-4c-3 0-6 3-6 6v120h19c23-3 59-10 59-58 0-28-8-60-43-67l-25-1zM314 82h1l25 33a21 21 0 010-3V82h5v42h-4l-1-1-25-32a38 38 0 010 3v30h-5V82h4M389 103l-1-7-3-6-5-3-6-1-7 1a13 13 0 00-8 9l-1 7 1 7 4 5c1 2 2 3 4 3l7 2 6-2c2 0 3-1 5-3l3-5 1-7zm6 0l-2 9c-1 2-2 5-4 6l-7 5-8 2-9-2-7-5c-2-1-3-4-4-6l-1-9 1-9 4-7 7-4 9-2 8 2a19 19 0 0111 11l2 9M409 102h10l3-2 2-3 1-3-2-6-8-2h-6zm0 4v18h-6V82h19l5 3 3 3 1 5-1 5c0 2-1 2-2 3l-3 3-5 1 2 2 12 17h-5l-2-1-11-15-1-1-2-1h-4M463 88l-1 1h-1-1a19 19 0 00-4-3h-7l-3 2-1 2-1 2 1 3 3 2 3 2a507 507 0 0111 5l2 3 1 4-1 5-3 5-4 3-6 1a18 18 0 01-14-6l2-3h3l2 2 3 1 4 1 3-1 3-1 2-3v-3-3l-3-2-3-2-4-1-3-1-4-2-2-4-1-4a11 11 0 014-8l4-3 5-1 7 1 5 3-1 3M479 100h4l1-1 14-16 1-1h7l-17 18-1 1-1 1 2 1 1 1 17 20h-6-1v-1h-1l-15-17v-1a3 3 0 00-2 0h-3v19h-6V82h6v18M316 175h7l5-1 3-2 2-2v-4l-2-6c-2-2-4-3-8-3h-7zm0 5v15h-5v-42h12l7 1 5 2 3 5 1 5-1 5-3 5-5 3-7 1h-7M353 173h10l3-2c1-1 2-1 2-3l1-3-3-6-7-2h-6zm0 5v17h-6v-42h12l7 1 5 2 3 4 1 5-1 4a11 11 0 01-5 6l-5 2 2 2 12 16h-5l-2-1-11-15-1-1h-6M411 153v5h-21v14h17v4h-17v15h21v4h-26v-42h26M441 160h-3a19 19 0 00-4-2l-3-1-4 1-2 1-2 2v3l1 3 2 2 3 1a459 459 0 0111 5l2 3 1 5-1 5a12 12 0 01-7 7l-6 1a18 18 0 01-13-6l1-2 1-1h1l1 1 2 1 3 1 4 1h4l3-2 1-2 1-4-1-3-2-2-4-1-3-1-4-2-3-2-3-3v-5a11 11 0 013-8l4-3 6-1 6 2c2 0 4 1 5 3l-1 3M472 160h-1-1l-2-1-2-1-4-1-3 1-3 1-1 2-1 3 1 3 3 2 3 1a477 477 0 0111 5l2 3 1 5-1 5a12 12 0 01-7 7l-6 1a18 18 0 01-14-6l2-2v-1h1l2 1 2 1 3 1 4 1h3l3-2 2-2v-4-3l-3-2-3-1a2915 2915 0 01-11-5l-2-3-1-5a11 11 0 013-8l5-3 5-1 7 2c2 0 3 1 5 3l-2 3M508 153v5h-20v14h17v4h-17v15h20v4h-26v-42h26M543 153v5h-20v14h17v5h-17v18h-6v-42h26M584 174l-1-7-3-5c-1-2-3-3-5-3l-6-2-6 2a13 13 0 00-8 8l-1 7 1 7 3 5 5 4 6 1 6-1 5-4 3-5 1-7zm6 0l-2 9-4 7-7 4-8 2-9-2a19 19 0 01-11-11l-1-9 1-9 5-7 6-4 9-2 8 2a19 19 0 0111 11l2 9M604 173h11l3-2 2-3v-3c0-2 0-4-2-6l-8-2h-6zm0 5v17h-6v-42h12l7 1 5 2c2 1 3 2 3 4l1 5-1 4a11 11 0 01-5 6l-4 2 1 2 13 16h-5l-3-1-11-15-1-1h-6M642 176v15h9l4-1 3-1 2-3v-3c0-2 0-4-2-5l-7-2zm0-4h7l5-1 3-1 1-2 1-3-2-6-7-2h-8zm-6 23v-42h14l6 1 5 2 3 3a12 12 0 010 8l-1 3-3 2-3 2c3 0 5 1 7 3l2 6-1 5-3 4-4 3h-22M691 191l5-1 3-3 3-3v-31h6v26l-1 7-3 5-6 4-7 1-7-1a16 16 0 01-9-9l-1-7v-26h6v26l1 5 2 3 3 3 5 1M722 153l1 1 25 32a21 21 0 01-1-3v-30h6v42h-5v-1l-25-32a44 44 0 010 3v30h-5v-42h4M794 174l-1-7-3-5c-1-2-3-3-5-3l-6-1h-10v33h10l6-1a13 13 0 008-9l1-7zm6 0l-2 9a19 19 0 01-11 11l-8 1h-16v-42h16l8 1a19 19 0 0111 11l2 9"/></g></svg>